<svg version="1.1" xmlns="http://www.w3.org/2000/svg" xmlns:xlink="http://www.w3.org/1999/xlink" width="813" height="480"><defs/><g><text fill="#cfcfcf" stroke="none" font-family="Arial" font-size="8px" font-style="normal" font-weight="normal" text-decoration="undefined" x="0" y="0" text-anchor="start" dominant-baseline="alphabetic" transform="matrix(1 0 0 1 0 0)"></text><text fill="#cfcfcf" stroke="none" font-family="Arial" font-size="8px" font-style="normal" font-weight="normal" text-decoration="undefined" x="0" y="12" text-anchor="start" dominant-baseline="alphabetic" transform="matrix(1 0 0 1 0 0)"></text><text fill="#cfcfcf" stroke="none" font-family="Arial" font-size="8px" font-style="normal" font-weight="normal" text-decoration="undefined" x="0" y="24" text-anchor="start" dominant-baseline="alphabetic" transform="matrix(1 0 0 1 0 0)"></text><g><rect fill="#C0C0C0" stroke="none" x="47" y="39" width="184" height="104" transform="matrix(1 0 0 1 -30 -22)" fill-opacity="0.2"/></g><g><rect fill="#ffffff" stroke="none" x="40" y="32" width="184" height="104" transform="matrix(1 0 0 1 -30 -22)"/></g><g><path fill="none" stroke="#000000" paint-order="fill stroke markers" d=" M 10 10 L 194 10 L 194 114 L 10 114 L 10 10 Z Z" stroke-miterlimit="10" stroke-dasharray=""/></g><g><path fill="none" stroke="#000000" paint-order="fill stroke markers" d=" M 10 35 L 194 35" stroke-miterlimit="10" stroke-dasharray=""/></g><g><path fill="none" stroke="#000000" paint-order="fill stroke markers" d=" M 10 73 L 194 73" stroke-miterlimit="10" stroke-dasharray=""/></g><g><g><path fill="none" stroke="none"/><text fill="#000000" stroke="none" font-family="Arial" font-size="13px" font-style="normal" font-weight="bold" text-decoration="undefined" x="132.5" y="45.5" text-anchor="middle" dominant-baseline="central" transform="matrix(1 0 0 1 -30 -22)">Alternativa</text></g></g><g><g><path fill="none" stroke="none"/><text fill="#000000" stroke="none" font-family="Arial" font-size="13px" font-style="normal" font-weight="normal" text-decoration="undefined" x="45" y="68.5" text-anchor="start" dominant-baseline="central" transform="matrix(1 0 0 1 -30 -22)">+contenido: str</text></g></g><g><g><path fill="none" stroke="none"/><text fill="#000000" stroke="none" font-family="Arial" font-size="13px" font-style="normal" font-weight="normal" text-decoration="undefined" x="45" y="83.5" text-anchor="start" dominant-baseline="central" transform="matrix(1 0 0 1 -30 -22)">+ayuda</text></g></g><g><g><path fill="none" stroke="none"/><text fill="#000000" stroke="none" font-family="Arial" font-size="13px" font-style="normal" font-weight="normal" text-decoration="undefined" x="45" y="106.5" text-anchor="start" dominant-baseline="central" transform="matrix(1 0 0 1 -30 -22)">+mostrar_alternativa()</text></g></g><g><rect fill="#C0C0C0" stroke="none" x="335" y="39" width="184" height="104" transform="matrix(1 0 0 1 -30 -22)" fill-opacity="0.2"/></g><g><rect fill="#ffffff" stroke="none" x="328" y="32" width="184" height="104" transform="matrix(1 0 0 1 -30 -22)"/></g><g><path fill="none" stroke="#000000" paint-order="fill stroke markers" d=" M 298 10 L 482 10 L 482 114 L 298 114 L 298 10 Z Z" stroke-miterlimit="10" stroke-dasharray=""/></g><g><path fill="none" stroke="#000000" paint-order="fill stroke markers" d=" M 298 35 L 482 35" stroke-miterlimit="10" stroke-dasharray=""/></g><g><path fill="none" stroke="#000000" paint-order="fill stroke markers" d=" M 298 88 L 482 88" stroke-miterlimit="10" stroke-dasharray=""/></g><g><g><path fill="none" stroke="none"/><text fill="#000000" stroke="none" font-family="Arial" font-size="13px" font-style="normal" font-weight="bold" text-decoration="undefined" x="420.5" y="45.5" text-anchor="middle" dominant-baseline="central" transform="matrix(1 0 0 1 -30 -22)">Pregunta</text></g></g><g><g><path fill="none" stroke="none"/><text fill="#000000" stroke="none" font-family="Arial" font-size="13px" font-style="normal" font-weight="normal" text-decoration="undefined" x="333" y="68.5" text-anchor="start" dominant-baseline="central" transform="matrix(1 0 0 1 -30 -22)">+enunciado: str</text></g></g><g><g><path fill="none" stroke="none"/><text fill="#000000" stroke="none" font-family="Arial" font-size="13px" font-style="normal" font-weight="normal" text-decoration="undefined" x="333" y="83.5" text-anchor="start" dominant-baseline="central" transform="matrix(1 0 0 1 -30 -22)">+ayuda: str</text></g></g><g><g><path fill="none" stroke="none"/><text fill="#000000" stroke="none" font-family="Arial" font-size="13px" font-style="normal" font-weight="normal" text-decoration="undefined" x="333" y="98.5" text-anchor="start" dominant-baseline="central" transform="matrix(1 0 0 1 -30 -22)">+requerido: bool</text></g></g><g><g><path fill="none" stroke="none"/><text fill="#000000" stroke="none" font-family="Arial" font-size="13px" font-style="normal" font-weight="normal" text-decoration="undefined" x="333" y="121.5" text-anchor="start" dominant-baseline="central" transform="matrix(1 0 0 1 -30 -22)">+mostrar_pregunta()</text></g></g><g><rect fill="#C0C0C0" stroke="none" x="335" y="215" width="184" height="112" transform="matrix(1 0 0 1 -30 -22)" fill-opacity="0.2"/></g><g><rect fill="#ffffff" stroke="none" x="328" y="208" width="184" height="112" transform="matrix(1 0 0 1 -30 -22)"/></g><g><path fill="none" stroke="#000000" paint-order="fill stroke markers" d=" M 298 186 L 482 186 L 482 298 L 298 298 L 298 186 Z Z" stroke-miterlimit="10" stroke-dasharray=""/></g><g><path fill="none" stroke="#000000" paint-order="fill stroke markers" d=" M 298 211 L 482 211" stroke-miterlimit="10" stroke-dasharray=""/></g><g><path fill="none" stroke="#000000" paint-order="fill stroke markers" d=" M 298 234 L 482 234" stroke-miterlimit="10" stroke-dasharray=""/></g><g><g><path fill="none" stroke="none"/><text fill="#000000" stroke="none" font-family="Arial" font-size="13px" font-style="normal" font-weight="bold" text-decoration="undefined" x="420.5" y="221.5" text-anchor="middle" dominant-baseline="central" transform="matrix(1 0 0 1 -30 -22)">Encuesta</text></g></g><g><g><path fill="none" stroke="none"/><text fill="#000000" stroke="none" font-family="Arial" font-size="13px" font-style="normal" font-weight="normal" text-decoration="undefined" x="333" y="244.5" text-anchor="start" dominant-baseline="central" transform="matrix(1 0 0 1 -30 -22)">+nombre: str</text></g></g><g><g><path fill="none" stroke="none"/><text fill="#000000" stroke="none" font-family="Arial" font-size="13px" font-style="normal" font-weight="normal" text-decoration="undefined" x="333" y="267.5" text-anchor="start" dominant-baseline="central" transform="matrix(1 0 0 1 -30 -22)">+mostrar_encuesta()</text></g></g><g><rect fill="#C0C0C0" stroke="none" x="335" y="383" width="184" height="116" transform="matrix(1 0 0 1 -30 -22)" fill-opacity="0.2"/></g><g><rect fill="#ffffff" stroke="none" x="328" y="376" width="184" height="116" transform="matrix(1 0 0 1 -30 -22)"/></g><g><path fill="none" stroke="#000000" paint-order="fill stroke markers" d=" M 298 354 L 482 354 L 482 470 L 298 470 L 298 354 Z Z" stroke-miterlimit="10" stroke-dasharray=""/></g><g><path fill="none" stroke="#000000" paint-order="fill stroke markers" d=" M 298 379 L 482 379" stroke-miterlimit="10" stroke-dasharray=""/></g><g><path fill="none" stroke="#000000" paint-order="fill stroke markers" d=" M 298 447 L 482 447" stroke-miterlimit="10" stroke-dasharray=""/></g><g><g><path fill="none" stroke="none"/><text fill="#000000" stroke="none" font-family="Arial" font-size="13px" font-style="normal" font-weight="bold" text-decoration="undefined" x="420.5" y="389.5" text-anchor="middle" dominant-baseline="central" transform="matrix(1 0 0 1 -30 -22)">Usuario</text></g></g><g><g><path fill="none" stroke="none"/><text fill="#000000" stroke="none" font-family="Arial" font-size="13px" font-style="normal" font-weight="normal" text-decoration="undefined" x="333" y="412.5" text-anchor="start" dominant-baseline="central" transform="matrix(1 0 0 1 -30 -22)">-nombre: str</text></g></g><g><g><path fill="none" stroke="none"/><text fill="#000000" stroke="none" font-family="Arial" font-size="13px" font-style="normal" font-weight="normal" text-decoration="undefined" x="333" y="427.5" text-anchor="start" dominant-baseline="central" transform="matrix(1 0 0 1 -30 -22)">-edad: int</text></g></g><g><g><path fill="none" stroke="none"/><text fill="#000000" stroke="none" font-family="Arial" font-size="13px" font-style="normal" font-weight="normal" text-decoration="undefined" x="333" y="442.5" text-anchor="start" dominant-baseline="central" transform="matrix(1 0 0 1 -30 -22)">-correo: str</text></g></g><g><g><path fill="none" stroke="none"/><text fill="#000000" stroke="none" font-family="Arial" font-size="13px" font-style="normal" font-weight="normal" text-decoration="undefined" x="333" y="457.5" text-anchor="start" dominant-baseline="central" transform="matrix(1 0 0 1 -30 -22)">-region: str</text></g></g><g><g><path fill="none" stroke="none"/><text fill="#000000" stroke="none" font-family="Arial" font-size="13px" font-style="normal" font-weight="normal" text-decoration="undefined" x="333" y="480.5" text-anchor="start" dominant-baseline="central" transform="matrix(1 0 0 1 -30 -22)">+contestar_encuesta()</text></g></g><g><rect fill="#C0C0C0" stroke="none" x="623" y="119" width="216" height="88" transform="matrix(1 0 0 1 -30 -22)" fill-opacity="0.2"/></g><g><rect fill="#ffffff" stroke="none" x="616" y="112" width="216" height="88" transform="matrix(1 0 0 1 -30 -22)"/></g><g><path fill="none" stroke="#000000" paint-order="fill stroke markers" d=" M 586 90 L 802 90 L 802 178 L 586 178 L 586 90 Z Z" stroke-miterlimit="10" stroke-dasharray=""/></g><g><path fill="none" stroke="#000000" paint-order="fill stroke markers" d=" M 586 115 L 802 115" stroke-miterlimit="10" stroke-dasharray=""/></g><g><path fill="none" stroke="#000000" paint-order="fill stroke markers" d=" M 586 153 L 802 153" stroke-miterlimit="10" stroke-dasharray=""/></g><g><g><path fill="none" stroke="none"/><text fill="#000000" stroke="none" font-family="Arial" font-size="13px" font-style="normal" font-weight="bold" text-decoration="undefined" x="724.5" y="125.5" text-anchor="middle" dominant-baseline="central" transform="matrix(1 0 0 1 -30 -22)">EncuestaLimitadaPorEdad</text></g></g><g><g><path fill="none" stroke="none"/><text fill="#000000" stroke="none" font-family="Arial" font-size="13px" font-style="normal" font-weight="normal" text-decoration="undefined" x="621" y="148.5" text-anchor="start" dominant-baseline="central" transform="matrix(1 0 0 1 -30 -22)">-edad_minima: int</text></g></g><g><g><path fill="none" stroke="none"/><text fill="#000000" stroke="none" font-family="Arial" font-size="13px" font-style="normal" font-weight="normal" text-decoration="undefined" x="621" y="163.5" text-anchor="start" dominant-baseline="central" transform="matrix(1 0 0 1 -30 -22)">-edad_maxima: int</text></g></g><g><g><path fill="none" stroke="none"/><text fill="#000000" stroke="none" font-family="Arial" font-size="13px" font-style="normal" font-weight="normal" text-decoration="undefined" x="621" y="186.5" text-anchor="start" dominant-baseline="central" transform="matrix(1 0 0 1 -30 -22)">+agregar_listado_respuestas()</text></g></g><g><rect fill="#C0C0C0" stroke="none" x="623" y="303" width="216" height="88" transform="matrix(1 0 0 1 -30 -22)" fill-opacity="0.2"/></g><g><rect fill="#ffffff" stroke="none" x="616" y="296" width="216" height="88" transform="matrix(1 0 0 1 -30 -22)"/></g><g><path fill="none" stroke="#000000" paint-order="fill stroke markers" d=" M 586 274 L 802 274 L 802 362 L 586 362 L 586 274 Z Z" stroke-miterlimit="10" stroke-dasharray=""/></g><g><path fill="none" stroke="#000000" paint-order="fill stroke markers" d=" M 586 299 L 802 299" stroke-miterlimit="10" stroke-dasharray=""/></g><g><path fill="none" stroke="#000000" paint-order="fill stroke markers" d=" M 586 322 L 802 322" stroke-miterlimit="10" stroke-dasharray=""/></g><g><g><path fill="none" stroke="none"/><text fill="#000000" stroke="none" font-family="Arial" font-size="13px" font-style="normal" font-weight="bold" text-decoration="undefined" x="724.5" y="309.5" text-anchor="middle" dominant-baseline="central" transform="matrix(1 0 0 1 -30 -22)">EncuestaLimitadaPorRegion</text></g></g><g><g><path fill="none" stroke="none"/><text fill="#000000" stroke="none" font-family="Arial" font-size="13px" font-style="normal" font-weight="normal" text-decoration="undefined" x="621" y="332.5" text-anchor="start" dominant-baseline="central" transform="matrix(1 0 0 1 -30 -22)">-lista_regiones: list</text></g></g><g><g><path fill="none" stroke="none"/><text fill="#000000" stroke="none" font-family="Arial" font-size="13px" font-style="normal" font-weight="normal" text-decoration="undefined" x="621" y="355.5" text-anchor="start" dominant-baseline="central" transform="matrix(1 0 0 1 -30 -22)">+agregar_listado_respuestas()</text></g></g><g><rect fill="#C0C0C0" stroke="none" x="47" y="239" width="184" height="58" transform="matrix(1 0 0 1 -30 -22)" fill-opacity="0.2"/></g><g><rect fill="#ffffff" stroke="none" x="40" y="232" width="184" height="58" transform="matrix(1 0 0 1 -30 -22)"/></g><g><path fill="none" stroke="#000000" paint-order="fill stroke markers" d=" M 10 210 L 194 210 L 194 268 L 10 268 L 10 210 Z Z" stroke-miterlimit="10" stroke-dasharray=""/></g><g><path fill="none" stroke="#000000" paint-order="fill stroke markers" d=" M 10 235 L 194 235" stroke-miterlimit="10" stroke-dasharray=""/></g><g><path fill="none" stroke="#000000" paint-order="fill stroke markers" d=" M 10 258 L 194 258" stroke-miterlimit="10" stroke-dasharray=""/></g><g><g><path fill="none" stroke="none"/><text fill="#000000" stroke="none" font-family="Arial" font-size="13px" font-style="normal" font-weight="bold" text-decoration="undefined" x="132.5" y="245.5" text-anchor="middle" dominant-baseline="central" transform="matrix(1 0 0 1 -30 -22)">ListaDeRespuesta</text></g></g><g><g><path fill="none" stroke="none"/><text fill="#000000" stroke="none" font-family="Arial" font-size="13px" font-style="normal" font-weight="normal" text-decoration="undefined" x="45" y="268.5" text-anchor="start" dominant-baseline="central" transform="matrix(1 0 0 1 -30 -22)">+lista_respuestas: list</text></g></g><g><path fill="none" stroke="#000000" paint-order="fill stroke markers" d=" M 195 62 L 297 62" stroke-miterlimit="10" stroke-dasharray=""/></g><g><path fill="#000000" stroke="none" paint-order="stroke fill markers" d=" M 286.83732514237585 66.20951775601598 L 297 62 L 286.83732514237585 57.790482243984016 L 275 62"/></g><g><path fill="none" stroke="#000000" paint-order="fill stroke markers" d=" M 286.83732514237585 66.20951775601598 L 297 62 L 286.83732514237585 57.790482243984016 L 275 62 L 286.83732514237585 66.20951775601598" stroke-miterlimit="10" stroke-dasharray=""/></g><g><path fill="none" stroke="#000000" paint-order="fill stroke markers" d=" M 390 115 L 390 185" stroke-miterlimit="10" stroke-dasharray=""/></g><g><path fill="#000000" stroke="none" paint-order="stroke fill markers" d=" M 385.790482243984 174.83732514237585 L 390 185 L 394.209517756016 174.83732514237585 L 390 163"/></g><g><path fill="none" stroke="#000000" paint-order="fill stroke markers" d=" M 385.790482243984 174.83732514237585 L 390 185 L 394.209517756016 174.83732514237585 L 390 163 L 385.790482243984 174.83732514237585" stroke-miterlimit="10" stroke-dasharray=""/></g><g><path fill="none" stroke="#000000" paint-order="fill stroke markers" d=" M 195 240 L 297 241" stroke-miterlimit="10" stroke-dasharray=""/></g><g><path fill="#000000" stroke="none" paint-order="stroke fill markers" d=" M 286.79654571075787 245.1096861884268 L 297 241 L 286.87908130816464 236.6910552529352 L 275.0010572094482 240.7843240902887"/></g><g><path fill="none" stroke="#000000" paint-order="fill stroke markers" d=" M 286.79654571075787 245.1096861884268 L 297 241 L 286.87908130816464 236.6910552529352 L 275.0010572094482 240.7843240902887 L 286.79654571075787 245.1096861884268" stroke-miterlimit="10" stroke-dasharray=""/></g><g><path fill="none" stroke="#000000" paint-order="fill stroke markers" d=" M 297 411 L 98 410 L 101 269" stroke-miterlimit="10" stroke-dasharray=""/></g><g><path fill="#FFFFFF" stroke="none" paint-order="stroke fill markers" d=" M 104.99238706974239 279.2499192916507 L 101 269 L 96.5752565323953 279.0708314078774 L 100.53202080720735 290.99502206125544"/></g><g><path fill="none" stroke="#000000" paint-order="fill stroke markers" d=" M 104.99238706974239 279.2499192916507 L 101 269 L 96.5752565323953 279.0708314078774 L 100.53202080720735 290.99502206125544 L 104.99238706974239 279.2499192916507" stroke-miterlimit="10" stroke-dasharray=""/></g><g><path fill="none" stroke="#000000" paint-order="fill stroke markers" d=" M 390 353 L 390 299" stroke-miterlimit="10" stroke-dasharray="3"/></g><g><path fill="none" stroke="#000000" paint-order="fill stroke markers" d=" M 394.209517756016 309.16267485762415 L 390 299 L 385.790482243984 309.16267485762415" stroke-miterlimit="10" stroke-dasharray=""/></g><g><path fill="none" stroke="#000000" paint-order="fill stroke markers" d=" M 585 137 L 530 138 L 490 178 L 479 185" stroke-miterlimit="10" stroke-dasharray=""/></g><g><path fill="#FFFFFF" stroke="none" paint-order="stroke fill markers" d=" M 491.6277409451279 166.98500184227763 L 479 185 L 500.66768861375556 181.19063389297833"/></g><g><path fill="none" stroke="#000000" paint-order="fill stroke markers" d=" M 491.6277409451279 166.98500184227763 L 479 185 L 500.66768861375556 181.19063389297833 L 491.6277409451279 166.98500184227763" stroke-miterlimit="10" stroke-dasharray=""/></g><g><path fill="none" stroke="#000000" paint-order="fill stroke markers" d=" M 585 321 L 530 322 L 483 295" stroke-miterlimit="10" stroke-dasharray=""/></g><g><path fill="#FFFFFF" stroke="none" paint-order="stroke fill markers" d=" M 504.81795091368485 297.82436150802926 L 483 295 L 496.43049586781206 312.42474621751154"/></g><g><path fill="none" stroke="#000000" paint-order="fill stroke markers" d=" M 504.81795091368485 297.82436150802926 L 483 295 L 496.43049586781206 312.42474621751154 L 504.81795091368485 297.82436150802926" stroke-miterlimit="10" stroke-dasharray=""/></g><g><g><path fill="none" stroke="none"/><text fill="#000000" stroke="none" font-family="Arial" font-size="13px" font-style="normal" font-weight="normal" text-decoration="undefined" x="381" y="349" text-anchor="start" dominant-baseline="text-before-edge" transform="matrix(1 0 0 1 -30 -22)">+usa</text></g></g></g></svg>